<?xml version="1.0" standalone="no"?>
<!DOCTYPE svg PUBLIC "-//W3C//DTD SVG 20010904//EN"
 "http://www.w3.org/TR/2001/REC-SVG-20010904/DTD/svg10.dtd">
<svg version="1.0" xmlns="http://www.w3.org/2000/svg"
 width="180.000000pt" height="180.000000pt" viewBox="0 0 180.000000 180.000000"
 preserveAspectRatio="xMidYMid meet">
<metadata>
Created by potrace 1.14, written by Peter Selinger 2001-2017
</metadata>
<g transform="translate(0.000000,180.000000) scale(0.100000,-0.100000)"
fill="#000000" stroke="none">
<path d="M0 900 l0 -850 900 0 900 0 0 850 0 850 -900 0 -900 0 0 -850z m860
361 c0 -11 2 -26 5 -33 4 -10 -11 -19 -52 -32 -78 -25 -162 -108 -188 -186
-68 -203 67 -404 278 -415 58 -4 62 -6 69 -31 4 -16 5 -30 2 -33 -3 -4 -36 -5
-72 -5 -95 3 -169 33 -242 101 -215 199 -136 551 143 638 56 18 57 18 57 -4z
m156 -116 c48 -20 115 -85 136 -133 11 -24 18 -45 16 -47 -2 -2 -15 -6 -29
-10 -23 -6 -27 -3 -33 19 -9 38 -65 96 -111 117 -130 59 -284 -43 -285 -188 0
-39 -2 -43 -25 -43 -17 0 -26 7 -30 23 -7 27 9 107 30 146 15 30 80 92 115
111 54 29 151 31 216 5z m-193 -231 c-5 -38 -2 -46 25 -73 39 -40 88 -42 130
-6 27 22 30 23 51 8 l23 -15 -28 -29 c-78 -82 -208 -52 -250 56 -14 38 -15 52
-5 85 11 37 13 39 36 28 22 -10 24 -15 18 -54z"/>
</g>
</svg>
